<svg width="1000" height="700" viewBox="0 0 1000 700" fill="none" xmlns="http://www.w3.org/2000/svg">
<path d="M258.2 490.2C262.2 490.2 265.5 491.6 268.3 494.4C271.1 497.2 272.5 500.6 272.5 504.5V554.1H221.8C217.8 554.1 214.5 552.7 211.7 549.9C208.9 547.1 207.5 543.7 207.5 539.8V516.2H260.6V504.5C260.6 503.8 260.4 503.3 259.9 502.8C259.4 502.3 258.9 502.1 258.2 502.1H207.5V490.2H258.2ZM260.6 542.2V528.1H219.4V539.8C219.4 540.5 219.6 541 220.1 541.5C220.6 542 221.1 542.2 221.8 542.2H260.6ZM375.3 490.2H388L364 554.1H354.3L332.8 506.6L312.5 554.1L312.3 554L312.4 554.1H302.8L277.7 490.2H290.3L307.6 532.6L326 490.2H339.6L359.1 532.6L375.3 490.2ZM442.5 490.2C446.5 490.2 449.8 491.6 452.6 494.4C455.4 497.2 456.8 500.6 456.8 504.5V528.1H403.7V539.8C403.7 540.5 403.9 541 404.4 541.5C404.9 542 405.4 542.2 406.1 542.2H456.8V554.1H406.1C402.1 554.1 398.8 552.7 396 549.9C393.2 547.1 391.8 543.7 391.8 539.8V504.5C391.8 500.5 393.2 497.2 396 494.4C398.8 491.6 402.2 490.2 406.1 490.2H442.5ZM403.7 516.2H444.9V504.5C444.9 503.8 444.7 503.3 444.2 502.8C443.7 502.3 443.2 502.1 442.5 502.1H406.1C405.4 502.1 404.9 502.3 404.4 502.8C403.9 503.3 403.7 503.8 403.7 504.5V516.2ZM532.7 504.6V507H520.8V504.6C520.8 503.9 520.6 503.4 520.1 502.9C519.6 502.4 519.1 502.2 518.4 502.2H482C481.3 502.2 480.8 502.4 480.3 502.9C479.8 503.4 479.6 503.9 479.6 504.6V513.9C479.6 514.6 479.8 515.1 480.3 515.6C480.8 516.1 481.3 516.3 482 516.3H518.4C522.4 516.3 525.7 517.7 528.5 520.5C531.3 523.3 532.7 526.7 532.7 530.6V539.9C532.7 543.9 531.3 547.2 528.5 550C525.7 552.8 522.3 554.2 518.4 554.2H482C478 554.2 474.7 552.8 471.9 550C469.1 547.2 467.7 543.8 467.7 539.9V537.5H479.6V539.9C479.6 540.6 479.8 541.1 480.3 541.6C480.8 542.1 481.3 542.3 482 542.3H518.4C519.1 542.3 519.6 542.1 520.1 541.6C520.6 541.1 520.8 540.6 520.8 539.9V530.6C520.8 529.9 520.6 529.4 520.1 528.9C519.6 528.4 519.1 528.2 518.4 528.2H482C478 528.2 474.7 526.8 471.9 524C469.1 521.2 467.7 517.8 467.7 513.9V504.6C467.7 500.6 469.1 497.3 471.9 494.5C474.7 491.7 478.1 490.3 482 490.3H518.4C522.4 490.3 525.7 491.7 528.5 494.5C531.3 497.2 532.7 500.6 532.7 504.6ZM557.9 490.2H594.3C598.3 490.2 601.6 491.6 604.4 494.4C607.2 497.2 608.6 500.6 608.6 504.5V539.8C608.6 543.8 607.2 547.1 604.4 549.9C601.6 552.7 598.2 554.1 594.3 554.1H557.9C553.9 554.1 550.6 552.7 547.8 549.9C545 547.1 543.6 543.7 543.6 539.8V504.5C543.6 500.5 545 497.2 547.8 494.4C550.6 491.6 554 490.2 557.9 490.2ZM594.3 502.1H557.9C557.2 502.1 556.7 502.3 556.2 502.8C555.7 503.3 555.5 503.8 555.5 504.5V539.8C555.5 540.5 555.7 541 556.2 541.5C556.7 542 557.2 542.2 557.9 542.2H594.3C595 542.2 595.5 542 596 541.5C596.5 541 596.7 540.5 596.7 539.8V504.5C596.7 503.8 596.5 503.3 596 502.8C595.5 502.4 595 502.1 594.3 502.1ZM701.8 490.2C705.8 490.2 709.1 491.6 711.9 494.4C714.7 497.2 716.1 500.6 716.1 504.5V554.1H704.3V504.5C704.3 503.8 704.1 503.3 703.6 502.8C703.1 502.3 702.5 502.1 701.8 502.1H676.6C675.9 502.1 675.4 502.3 674.9 502.8C674.4 503.3 674.2 503.8 674.2 504.5V554.1H662.3V504.5C662.3 503.8 662.1 503.3 661.6 502.8C661.1 502.3 660.6 502.1 659.9 502.1H634.6C633.9 502.1 633.4 502.3 632.9 502.8C632.4 503.3 632.2 503.8 632.2 504.5V554.1H620.3V490.2H701.8ZM778.3 490.2C782.3 490.2 785.6 491.6 788.4 494.4C791.2 497.2 792.6 500.6 792.6 504.5V528.1H739.5V539.8C739.5 540.5 739.7 541 740.2 541.5C740.7 542 741.2 542.2 741.9 542.2H792.6V554.1H741.9C737.9 554.1 734.6 552.7 731.8 549.9C729 547.1 727.6 543.7 727.6 539.8V504.5C727.6 500.5 729 497.2 731.8 494.4C734.6 491.6 738 490.2 741.9 490.2H778.3ZM739.5 516.2H780.7V504.5C780.7 503.8 780.5 503.3 780 502.8C779.5 502.3 779 502.1 778.3 502.1H741.9C741.2 502.1 740.7 502.3 740.2 502.8C739.7 503.3 739.5 503.8 739.5 504.5V516.2Z" fill="#494368"/>
<path d="M792.5 258.1L642.5 120.5L621.4 143.5L746.4 258.1H253.7L378.7 143.4L357.6 120.4L207.6 258.1H207.5V348.8C207.5 389.8 247 423.2 295.5 423.2H388C436.5 423.2 476 389.8 476 348.8V289.2H524V348.8C524 389.8 563.5 423.2 612 423.2H704.5C753 423.2 792.5 389.8 792.5 348.8V258.1Z" fill="#FC60A8"/>
<path d="M213.645 572.776H217.467V576.598H213.645V572.776ZM209.822 572.776H213.645V576.598H209.822V572.776ZM209.822 576.598H213.645V580.421H209.822V576.598ZM213.645 576.598H217.467V580.421H213.645V576.598ZM217.467 576.598H221.29V580.421H217.467V576.598ZM217.467 572.776H221.29V576.598H217.467V572.776ZM221.29 572.776H225.112V576.598H221.29V572.776ZM225.112 572.776H228.934V576.598H225.112V572.776ZM225.112 576.598H228.934V580.421H225.112V576.598ZM221.29 576.598H225.112V580.421H221.29V576.598ZM221.29 580.421H225.112V584.243H221.29V580.421ZM225.112 580.421H228.934V584.243H225.112V580.421ZM228.934 576.598H232.757V580.421H228.934V576.598ZM228.934 580.421H232.757V584.243H228.934V580.421ZM228.934 584.243H232.757V588.066H228.934V584.243ZM228.934 588.066H232.757V591.888H228.934V588.066ZM228.934 591.888H232.757V595.71H228.934V591.888ZM228.934 595.71H232.757V599.533H228.934V595.71ZM228.934 599.533H232.757V603.355H228.934V599.533ZM228.934 603.355H232.757V607.178H228.934V603.355ZM225.112 603.355H228.934V607.178H225.112V603.355ZM225.112 599.533H228.934V603.355H225.112V599.533ZM225.112 595.71H228.934V599.533H225.112V595.71ZM225.112 591.888H228.934V595.71H225.112V591.888ZM225.112 588.066H228.934V591.888H225.112V588.066ZM225.112 584.243H228.934V588.066H225.112V584.243ZM221.29 599.533H225.112V603.355H221.29V599.533ZM221.29 603.355H225.112V607.178H221.29V603.355ZM225.112 607.178H228.934V611H225.112V607.178ZM221.29 607.178H225.112V611H221.29V607.178ZM217.467 607.178H221.29V611H217.467V607.178ZM217.467 603.355H221.29V607.178H217.467V603.355ZM213.645 607.178H217.467V611H213.645V607.178ZM209.822 607.178H213.645V611H209.822V607.178ZM209.822 603.355H213.645V607.178H209.822V603.355ZM213.645 603.355H217.467V607.178H213.645V603.355ZM209.822 599.533H213.645V603.355H209.822V599.533ZM206 603.355H209.822V607.178H206V603.355ZM206 599.533H209.822V603.355H206V599.533ZM206 595.71H209.822V599.533H206V595.71ZM206 591.888H209.822V595.71H206V591.888ZM206 588.066H209.822V591.888H206V588.066ZM206 584.243H209.822V588.066H206V584.243ZM206 580.421H209.822V584.243H206V580.421ZM209.822 580.421H213.645V584.243H209.822V580.421ZM206 576.598H209.822V580.421H206V576.598ZM209.822 584.243H213.645V588.066H209.822V584.243ZM209.822 588.066H213.645V591.888H209.822V588.066ZM209.822 591.888H213.645V595.71H209.822V591.888ZM209.822 595.71H213.645V599.533H209.822V595.71ZM206 607.178H209.822V611H206V607.178ZM206 572.776H209.822V576.598H206V572.776ZM259.523 611H255.701V607.178H259.523V611ZM259.523 607.178H255.701V603.355H259.523V607.178ZM255.701 607.178H251.879V603.355H255.701V607.178ZM251.879 611H248.056V607.178H251.879V611ZM248.056 611H244.234V607.178H248.056V611ZM244.234 611H240.411V607.178H244.234V611ZM244.234 607.178H240.411V603.355H244.234V607.178ZM248.056 607.178H244.234V603.355H248.056V607.178ZM240.411 607.178H236.589V603.355H240.411V607.178ZM240.411 603.355H236.589V599.533H240.411V603.355ZM240.411 588.066H236.589V584.243H240.411V588.066ZM244.234 588.066H240.411V584.243H244.234V588.066ZM244.234 603.355H240.411V599.533H244.234V603.355ZM248.056 588.066H244.234V584.243H248.056V588.066ZM244.234 584.243H240.411V580.421H244.234V584.243ZM248.056 584.243H244.234V580.421H248.056V584.243ZM251.879 584.243H248.056V580.421H251.879V584.243ZM255.701 584.243H251.879V580.421H255.701V584.243ZM259.523 584.243H255.701V580.421H259.523V584.243ZM259.523 588.066H255.701V584.243H259.523V588.066ZM255.701 588.066H251.879V584.243H255.701V588.066ZM259.523 591.888H255.701V588.066H259.523V591.888ZM263.346 588.066H259.523V584.243H263.346V588.066ZM263.346 591.888H259.523V588.066H263.346V591.888ZM263.346 595.71H259.523V591.888H263.346V595.71ZM263.346 599.533H259.523V595.71H263.346V599.533ZM263.346 603.355H259.523V599.533H263.346V603.355ZM263.346 607.178H259.523V603.355H263.346V607.178ZM259.523 603.355H255.701V599.533H259.523V603.355ZM259.523 599.533H255.701V595.71H259.523V599.533ZM259.523 595.71H255.701V591.888H259.523V595.71ZM251.879 588.066H248.056V584.243H251.879V588.066ZM251.879 607.178H248.056V603.355H251.879V607.178ZM259.523 607.178H263.346V611H259.523V607.178ZM251.879 591.888H255.701V595.71H251.879V591.888ZM248.056 591.888H251.879V595.71H248.056V591.888ZM244.234 591.888H248.056V595.71H244.234V591.888ZM240.411 591.888H244.234V595.71H240.411V591.888ZM236.589 595.71H240.411V599.533H236.589V595.71ZM240.411 595.71H244.234V599.533H240.411V595.71ZM251.879 595.71H255.701V599.533H251.879V595.71ZM248.056 595.71H251.879V599.533H248.056V595.71ZM244.234 595.71H248.056V599.533H244.234V595.71ZM282.468 603.355H286.29V607.178H282.468V603.355ZM282.468 607.178H286.29V611H282.468V607.178ZM278.645 607.178H282.468V611H278.645V607.178ZM278.645 603.355H282.468V607.178H278.645V603.355ZM274.823 607.178H278.645V611H274.823V607.178ZM274.823 603.355H278.645V607.178H274.823V603.355ZM271.001 603.355H274.823V607.178H271.001V603.355ZM271.001 599.533H274.823V603.355H271.001V599.533ZM271.001 595.71H274.823V599.533H271.001V595.71ZM271.001 591.888H274.823V595.71H271.001V591.888ZM271.001 588.066H274.823V591.888H271.001V588.066ZM271.001 584.243H274.823V588.066H271.001V584.243ZM274.823 595.71H278.645V599.533H274.823V595.71ZM274.823 599.533H278.645V603.355H274.823V599.533ZM274.823 591.888H278.645V595.71H274.823V591.888ZM274.823 588.066H278.645V591.888H274.823V588.066ZM274.823 572.776H278.645V576.598H274.823V572.776ZM274.823 576.598H278.645V580.421H274.823V576.598ZM274.823 580.421H278.645V584.243H274.823V580.421ZM274.823 584.243H278.645V588.066H274.823V584.243ZM271.001 580.421H274.823V584.243H271.001V580.421ZM267.178 584.243H271.001V588.066H267.178V584.243ZM278.645 584.243H282.468V588.066H278.645V584.243ZM282.468 584.243H286.29V588.066H282.468V584.243ZM271.001 576.598H274.823V580.421H271.001V576.598ZM267.178 588.066H271.001V591.888H267.178V588.066ZM278.645 588.066H282.468V591.888H278.645V588.066ZM282.468 588.066H286.29V591.888H282.468V588.066ZM313.037 611H309.214V607.178H313.037V611ZM313.037 607.178H309.214V603.355H313.037V607.178ZM309.214 607.178H305.392V603.355H309.214V607.178ZM305.392 611H301.57V607.178H305.392V611ZM301.57 611H297.747V607.178H301.57V611ZM297.747 611H293.925V607.178H297.747V611ZM297.747 607.178H293.925V603.355H297.747V607.178ZM301.57 607.178H297.747V603.355H301.57V607.178ZM293.925 607.178H290.103V603.355H293.925V607.178ZM293.925 603.355H290.103V599.533H293.925V603.355ZM293.925 588.066H290.103V584.243H293.925V588.066ZM297.747 588.066H293.925V584.243H297.747V588.066ZM297.747 603.355H293.925V599.533H297.747V603.355ZM301.57 588.066H297.747V584.243H301.57V588.066ZM297.747 584.243H293.925V580.421H297.747V584.243ZM301.57 584.243H297.747V580.421H301.57V584.243ZM305.392 584.243H301.57V580.421H305.392V584.243ZM309.214 584.243H305.392V580.421H309.214V584.243ZM313.037 584.243H309.214V580.421H313.037V584.243ZM313.037 588.066H309.214V584.243H313.037V588.066ZM309.214 588.066H305.392V584.243H309.214V588.066ZM313.037 591.888H309.214V588.066H313.037V591.888ZM316.859 588.066H313.037V584.243H316.859V588.066ZM316.859 591.888H313.037V588.066H316.859V591.888ZM316.859 595.71H313.037V591.888H316.859V595.71ZM316.859 599.533H313.037V595.71H316.859V599.533ZM316.859 603.355H313.037V599.533H316.859V603.355ZM316.859 607.178H313.037V603.355H316.859V607.178ZM313.037 603.355H309.214V599.533H313.037V603.355ZM313.037 599.533H309.214V595.71H313.037V599.533ZM313.037 595.71H309.214V591.888H313.037V595.71ZM305.392 588.066H301.57V584.243H305.392V588.066ZM305.392 607.178H301.57V603.355H305.392V607.178ZM313.037 607.178H316.859V611H313.037V607.178ZM305.392 591.888H309.214V595.71H305.392V591.888ZM301.57 591.888H305.392V595.71H301.57V591.888ZM297.747 591.888H301.57V595.71H297.747V591.888ZM293.925 591.888H297.747V595.71H293.925V591.888ZM290.103 595.71H293.925V599.533H290.103V595.71ZM293.925 595.71H297.747V599.533H293.925V595.71ZM305.392 595.71H309.214V599.533H305.392V595.71ZM301.57 595.71H305.392V599.533H301.57V595.71ZM297.747 595.71H301.57V599.533H297.747V595.71ZM358.886 580.421H362.708V584.243H358.886V580.421ZM355.063 580.421H358.886V584.243H355.063V580.421ZM355.063 576.598H358.886V580.421H355.063V576.598ZM358.886 576.598H362.708V580.421H358.886V576.598ZM355.063 572.776H358.886V576.598H355.063V572.776ZM351.241 572.776H355.063V576.598H351.241V572.776ZM351.241 576.598H355.063V580.421H351.241V576.598ZM347.418 576.598H351.241V580.421H347.418V576.598ZM343.596 576.598H347.418V580.421H343.596V576.598ZM343.596 572.776H347.418V576.598H343.596V572.776ZM339.774 572.776H343.596V576.598H339.774V572.776ZM347.418 572.776H351.241V576.598H347.418V572.776ZM339.774 576.598H343.596V580.421H339.774V576.598ZM335.951 576.598H339.774V580.421H335.951V576.598ZM335.951 580.421H339.774V584.243H335.951V580.421ZM339.774 580.421H343.596V584.243H339.774V580.421ZM339.774 584.243H343.596V588.066H339.774V584.243ZM339.774 588.066H343.596V591.888H339.774V588.066ZM335.951 588.066H339.774V591.888H335.951V588.066ZM335.951 584.243H339.774V588.066H335.951V584.243ZM339.774 591.888H343.596V595.71H339.774V591.888ZM343.596 591.888H347.418V595.71H343.596V591.888ZM343.596 588.066H347.418V591.888H343.596V588.066ZM347.418 588.066H351.241V591.888H347.418V588.066ZM351.241 588.066H355.063V591.888H351.241V588.066ZM355.063 588.066H358.886V591.888H355.063V588.066ZM355.063 591.888H358.886V595.71H355.063V591.888ZM351.241 591.888H355.063V595.71H351.241V591.888ZM347.418 591.888H351.241V595.71H347.418V591.888ZM358.886 591.888H362.708V595.71H358.886V591.888ZM358.886 595.71H362.708V599.533H358.886V595.71ZM355.063 595.71H358.886V599.533H355.063V595.71ZM351.241 603.355H355.063V607.178H351.241V603.355ZM355.063 603.355H358.886V607.178H355.063V603.355ZM355.063 599.533H358.886V603.355H355.063V599.533ZM358.886 599.533H362.708V603.355H358.886V599.533ZM358.886 603.355H362.708V607.178H358.886V603.355ZM355.063 607.178H358.886V611H355.063V607.178ZM351.241 607.178H355.063V611H351.241V607.178ZM347.418 607.178H351.241V611H347.418V607.178ZM343.596 607.178H347.418V611H343.596V607.178ZM339.774 607.178H343.596V611H339.774V607.178ZM339.774 603.355H343.596V607.178H339.774V603.355ZM343.596 603.355H347.418V607.178H343.596V603.355ZM347.418 603.355H351.241V607.178H347.418V603.355ZM335.951 603.355H339.774V607.178H335.951V603.355ZM335.951 599.533H339.774V603.355H335.951V599.533ZM339.774 599.533H343.596V603.355H339.774V599.533ZM381.83 603.355H385.652V607.178H381.83V603.355ZM381.83 607.178H385.652V611H381.83V607.178ZM378.008 607.178H381.83V611H378.008V607.178ZM378.008 603.355H381.83V607.178H378.008V603.355ZM374.185 607.178H378.008V611H374.185V607.178ZM374.185 603.355H378.008V607.178H374.185V603.355ZM370.363 603.355H374.185V607.178H370.363V603.355ZM370.363 599.533H374.185V603.355H370.363V599.533ZM370.363 595.71H374.185V599.533H370.363V595.71ZM370.363 591.888H374.185V595.71H370.363V591.888ZM370.363 588.066H374.185V591.888H370.363V588.066ZM370.363 584.243H374.185V588.066H370.363V584.243ZM374.185 595.71H378.008V599.533H374.185V595.71ZM374.185 599.533H378.008V603.355H374.185V599.533ZM374.185 591.888H378.008V595.71H374.185V591.888ZM374.185 588.066H378.008V591.888H374.185V588.066ZM374.185 572.776H378.008V576.598H374.185V572.776ZM374.185 576.598H378.008V580.421H374.185V576.598ZM374.185 580.421H378.008V584.243H374.185V580.421ZM374.185 584.243H378.008V588.066H374.185V584.243ZM370.363 580.421H374.185V584.243H370.363V580.421ZM366.54 584.243H370.363V588.066H366.54V584.243ZM378.008 584.243H381.83V588.066H378.008V584.243ZM381.83 584.243H385.652V588.066H381.83V584.243ZM370.363 576.598H374.185V580.421H370.363V576.598ZM366.54 588.066H370.363V591.888H366.54V588.066ZM378.008 588.066H381.83V591.888H378.008V588.066ZM381.83 588.066H385.652V591.888H381.83V588.066ZM397.11 580.421H400.932V584.243H397.11V580.421ZM393.287 580.421H397.11V584.243H393.287V580.421ZM393.287 584.243H397.11V588.066H393.287V584.243ZM397.11 584.243H400.932V588.066H397.11V584.243ZM400.932 580.421H404.754V584.243H400.932V580.421ZM404.754 580.421H408.577V584.243H404.754V580.421ZM408.577 580.421H412.399V584.243H408.577V580.421ZM408.577 584.243H412.399V588.066H408.577V584.243ZM404.754 584.243H408.577V588.066H404.754V584.243ZM408.577 591.888H412.399V595.71H408.577V591.888ZM412.399 584.243H416.221V588.066H412.399V584.243ZM412.399 588.066H416.221V591.888H412.399V588.066ZM412.399 591.888H416.221V595.71H412.399V591.888ZM412.399 595.71H416.221V599.533H412.399V595.71ZM412.399 599.533H416.221V603.355H412.399V599.533ZM412.399 603.355H416.221V607.178H412.399V603.355ZM408.577 603.355H412.399V607.178H408.577V603.355ZM408.577 599.533H412.399V603.355H408.577V599.533ZM408.577 595.71H412.399V599.533H408.577V595.71ZM408.577 588.066H412.399V591.888H408.577V588.066ZM404.754 603.355H408.577V607.178H404.754V603.355ZM408.577 607.178H412.399V611H408.577V607.178ZM404.754 607.178H408.577V611H404.754V607.178ZM400.932 607.178H404.754V611H400.932V607.178ZM397.11 607.178H400.932V611H397.11V607.178ZM393.287 607.178H397.11V611H393.287V607.178ZM393.287 603.355H397.11V607.178H393.287V603.355ZM397.11 603.355H400.932V607.178H397.11V603.355ZM393.287 599.533H397.11V603.355H393.287V599.533ZM389.465 603.355H393.287V607.178H389.465V603.355ZM389.465 599.533H393.287V603.355H389.465V599.533ZM389.465 595.71H393.287V599.533H389.465V595.71ZM389.465 591.888H393.287V595.71H389.465V591.888ZM389.465 588.066H393.287V591.888H389.465V588.066ZM389.465 584.243H393.287V588.066H389.465V584.243ZM393.287 588.066H397.11V591.888H393.287V588.066ZM393.287 591.888H397.11V595.71H393.287V591.888ZM393.287 595.71H397.11V599.533H393.287V595.71ZM400.932 603.355H404.754V607.178H400.932V603.355ZM400.932 584.243H404.754V588.066H400.932V584.243ZM420.054 584.243H423.876V588.066H420.054V584.243ZM420.054 580.421H423.876V584.243H420.054V580.421ZM423.876 580.421H427.699V584.243H423.876V580.421ZM423.876 584.243H427.699V588.066H423.876V584.243ZM423.876 588.066H427.699V591.888H423.876V588.066ZM423.876 591.888H427.699V595.71H423.876V591.888ZM423.876 595.71H427.699V599.533H423.876V595.71ZM420.054 595.71H423.876V599.533H420.054V595.71ZM420.054 591.888H423.876V595.71H420.054V591.888ZM420.054 588.066H423.876V591.888H420.054V588.066ZM420.054 599.533H423.876V603.355H420.054V599.533ZM423.876 599.533H427.699V603.355H423.876V599.533ZM423.876 603.355H427.699V607.178H423.876V603.355ZM423.876 607.178H427.699V611H423.876V607.178ZM420.054 607.178H423.876V611H420.054V607.178ZM420.054 603.355H423.876V607.178H420.054V603.355ZM427.699 584.243H431.521V588.066H427.699V584.243ZM431.521 584.243H435.343V588.066H431.521V584.243ZM435.343 584.243H439.166V588.066H435.343V584.243ZM435.343 580.421H439.166V584.243H435.343V580.421ZM431.521 580.421H435.343V584.243H431.521V580.421ZM427.699 588.066H431.521V591.888H427.699V588.066ZM439.166 584.243H442.988V588.066H439.166V584.243ZM435.343 588.066H439.166V591.888H435.343V588.066ZM446.811 580.421H450.633V584.243H446.811V580.421ZM450.633 580.421H454.455V584.243H450.633V580.421ZM450.633 584.243H454.455V588.066H450.633V584.243ZM450.633 588.066H454.455V591.888H450.633V588.066ZM450.633 591.888H454.455V595.71H450.633V591.888ZM446.811 588.066H450.633V591.888H446.811V588.066ZM446.811 584.243H450.633V588.066H446.811V584.243ZM446.811 591.888H450.633V595.71H446.811V591.888ZM446.811 595.71H450.633V599.533H446.811V595.71ZM450.633 595.71H454.455V599.533H450.633V595.71ZM450.633 599.533H454.455V603.355H450.633V599.533ZM454.455 599.533H458.278V603.355H454.455V599.533ZM454.455 603.355H458.278V607.178H454.455V603.355ZM458.278 603.355H462.1V607.178H458.278V603.355ZM462.1 603.355H465.922V607.178H462.1V603.355ZM462.1 599.533H465.922V603.355H462.1V599.533ZM462.1 595.71H465.922V599.533H462.1V595.71ZM465.922 595.71H469.745V599.533H465.922V595.71ZM465.922 599.533H469.745V603.355H465.922V599.533ZM465.922 591.888H469.745V595.71H465.922V591.888ZM462.1 591.888H465.922V595.71H462.1V591.888ZM462.1 580.421H465.922V584.243H462.1V580.421ZM465.922 580.421H469.745V584.243H465.922V580.421ZM465.922 584.243H469.745V588.066H465.922V584.243ZM465.922 588.066H469.745V591.888H465.922V588.066ZM462.1 584.243H465.922V588.066H462.1V584.243ZM462.1 588.066H465.922V591.888H462.1V588.066ZM458.278 607.178H462.1V611H458.278V607.178ZM454.455 607.178H458.278V611H454.455V607.178ZM454.455 611H458.278V614.822H454.455V611ZM450.633 611H454.455V614.822H450.633V611ZM450.633 607.178H454.455V611H450.633V607.178ZM450.633 614.822H454.455V618.645H450.633V614.822ZM446.811 614.822H450.633V618.645H446.811V614.822ZM446.811 611H450.633V614.822H446.811V611ZM458.278 599.533H462.1V603.355H458.278V599.533ZM454.455 595.71H458.278V599.533H454.455V595.71ZM488.857 603.355H492.679V607.178H488.857V603.355ZM488.857 607.178H492.679V611H488.857V607.178ZM485.034 607.178H488.857V611H485.034V607.178ZM485.034 603.355H488.857V607.178H485.034V603.355ZM481.212 607.178H485.034V611H481.212V607.178ZM481.212 603.355H485.034V607.178H481.212V603.355ZM477.39 603.355H481.212V607.178H477.39V603.355ZM477.39 599.533H481.212V603.355H477.39V599.533ZM477.39 595.71H481.212V599.533H477.39V595.71ZM477.39 591.888H481.212V595.71H477.39V591.888ZM477.39 588.066H481.212V591.888H477.39V588.066ZM477.39 584.243H481.212V588.066H477.39V584.243ZM481.212 595.71H485.034V599.533H481.212V595.71ZM481.212 599.533H485.034V603.355H481.212V599.533ZM481.212 591.888H485.034V595.71H481.212V591.888ZM481.212 588.066H485.034V591.888H481.212V588.066ZM481.212 572.776H485.034V576.598H481.212V572.776ZM481.212 576.598H485.034V580.421H481.212V576.598ZM481.212 580.421H485.034V584.243H481.212V580.421ZM481.212 584.243H485.034V588.066H481.212V584.243ZM477.39 580.421H481.212V584.243H477.39V580.421ZM473.567 584.243H477.39V588.066H473.567V584.243ZM485.034 584.243H488.857V588.066H485.034V584.243ZM488.857 584.243H492.679V588.066H488.857V584.243ZM477.39 576.598H481.212V580.421H477.39V576.598ZM473.567 588.066H477.39V591.888H473.567V588.066ZM485.034 588.066H488.857V591.888H485.034V588.066ZM488.857 588.066H492.679V591.888H488.857V588.066ZM504.136 580.421H507.959V584.243H504.136V580.421ZM500.314 580.421H504.136V584.243H500.314V580.421ZM500.314 584.243H504.136V588.066H500.314V584.243ZM504.136 584.243H507.959V588.066H504.136V584.243ZM507.959 580.421H511.781V584.243H507.959V580.421ZM511.781 580.421H515.604V584.243H511.781V580.421ZM515.604 580.421H519.426V584.243H515.604V580.421ZM515.604 584.243H519.426V588.066H515.604V584.243ZM511.781 584.243H515.604V588.066H511.781V584.243ZM519.426 584.243H523.248V588.066H519.426V584.243ZM519.426 588.066H523.248V591.888H519.426V588.066ZM519.426 603.355H523.248V607.178H519.426V603.355ZM515.604 603.355H519.426V607.178H515.604V603.355ZM515.604 588.066H519.426V591.888H515.604V588.066ZM511.781 603.355H515.604V607.178H511.781V603.355ZM515.604 607.178H519.426V611H515.604V607.178ZM511.781 607.178H515.604V611H511.781V607.178ZM507.959 607.178H511.781V611H507.959V607.178ZM504.136 607.178H507.959V611H504.136V607.178ZM500.314 607.178H504.136V611H500.314V607.178ZM500.314 603.355H504.136V607.178H500.314V603.355ZM504.136 603.355H507.959V607.178H504.136V603.355ZM500.314 599.533H504.136V603.355H500.314V599.533ZM496.492 603.355H500.314V607.178H496.492V603.355ZM496.492 599.533H500.314V603.355H496.492V599.533ZM496.492 595.71H500.314V599.533H496.492V595.71ZM496.492 591.888H500.314V595.71H496.492V591.888ZM496.492 588.066H500.314V591.888H496.492V588.066ZM496.492 584.243H500.314V588.066H496.492V584.243ZM500.314 588.066H504.136V591.888H500.314V588.066ZM500.314 591.888H504.136V595.71H500.314V591.888ZM500.314 595.71H504.136V599.533H500.314V595.71ZM507.959 603.355H511.781V607.178H507.959V603.355ZM507.959 584.243H511.781V588.066H507.959V584.243ZM515.604 591.888H519.426V595.71H515.604V591.888ZM519.426 591.888H523.248V595.71H519.426V591.888ZM504.136 595.71H507.959V599.533H504.136V595.71ZM507.959 595.71H511.781V599.533H507.959V595.71ZM511.781 595.71H515.604V599.533H511.781V595.71ZM515.604 595.71H519.426V599.533H515.604V595.71ZM519.426 595.71H523.248V599.533H519.426V595.71ZM511.781 591.888H515.604V595.71H511.781V591.888ZM507.959 591.888H511.781V595.71H507.959V591.888ZM504.136 591.888H507.959V595.71H504.136V591.888ZM527.081 572.776H530.903V576.598H527.081V572.776ZM530.903 572.776H534.725V576.598H530.903V572.776ZM530.903 576.598H534.725V580.421H530.903V576.598ZM530.903 580.421H534.725V584.243H530.903V580.421ZM530.903 584.243H534.725V588.066H530.903V584.243ZM530.903 588.066H534.725V591.888H530.903V588.066ZM530.903 591.888H534.725V595.71H530.903V591.888ZM527.081 591.888H530.903V595.71H527.081V591.888ZM527.081 595.71H530.903V599.533H527.081V595.71ZM527.081 599.533H530.903V603.355H527.081V599.533ZM527.081 603.355H530.903V607.178H527.081V603.355ZM527.081 607.178H530.903V611H527.081V607.178ZM530.903 607.178H534.725V611H530.903V607.178ZM530.903 603.355H534.725V607.178H530.903V603.355ZM530.903 599.533H534.725V603.355H530.903V599.533ZM530.903 595.71H534.725V599.533H530.903V595.71ZM527.081 588.066H530.903V591.888H527.081V588.066ZM527.081 584.243H530.903V588.066H527.081V584.243ZM527.081 580.421H530.903V584.243H527.081V580.421ZM527.081 576.598H530.903V580.421H527.081V576.598ZM538.578 572.776H542.4V576.598H538.578V572.776ZM542.4 572.776H546.223V576.598H542.4V572.776ZM542.4 576.598H546.223V580.421H542.4V576.598ZM542.4 580.421H546.223V584.243H542.4V580.421ZM542.4 584.243H546.223V588.066H542.4V584.243ZM542.4 588.066H546.223V591.888H542.4V588.066ZM542.4 591.888H546.223V595.71H542.4V591.888ZM538.578 591.888H542.4V595.71H538.578V591.888ZM538.578 595.71H542.4V599.533H538.578V595.71ZM538.578 599.533H542.4V603.355H538.578V599.533ZM538.578 603.355H542.4V607.178H538.578V603.355ZM538.578 607.178H542.4V611H538.578V607.178ZM542.4 607.178H546.223V611H542.4V607.178ZM542.4 603.355H546.223V607.178H542.4V603.355ZM542.4 599.533H546.223V603.355H542.4V599.533ZM542.4 595.71H546.223V599.533H542.4V595.71ZM538.578 588.066H542.4V591.888H538.578V588.066ZM538.578 584.243H542.4V588.066H538.578V584.243ZM538.578 580.421H542.4V584.243H538.578V580.421ZM538.578 576.598H542.4V580.421H538.578V576.598ZM550.075 572.776H557.72V580.421H550.075V572.776ZM550.075 584.243H557.72V611H550.075V584.243ZM561.572 584.243H565.394V588.066H561.572V584.243ZM561.572 580.421H565.394V584.243H561.572V580.421ZM565.394 580.421H569.217V584.243H565.394V580.421ZM565.394 584.243H569.217V588.066H565.394V584.243ZM565.394 588.066H569.217V591.888H565.394V588.066ZM565.394 591.888H569.217V595.71H565.394V591.888ZM565.394 595.71H569.217V599.533H565.394V595.71ZM561.572 595.71H565.394V599.533H561.572V595.71ZM561.572 591.888H565.394V595.71H561.572V591.888ZM561.572 588.066H565.394V591.888H561.572V588.066ZM561.572 599.533H565.394V603.355H561.572V599.533ZM565.394 599.533H569.217V603.355H565.394V599.533ZM565.394 603.355H569.217V607.178H565.394V603.355ZM565.394 607.178H569.217V611H565.394V607.178ZM561.572 607.178H565.394V611H561.572V607.178ZM561.572 603.355H565.394V607.178H561.572V603.355ZM580.684 607.178H584.506V611H580.684V607.178ZM584.506 607.178H588.329V611H584.506V607.178ZM584.506 603.355H588.329V607.178H584.506V603.355ZM584.506 599.533H588.329V603.355H584.506V599.533ZM584.506 595.71H588.329V599.533H584.506V595.71ZM584.506 591.888H588.329V595.71H584.506V591.888ZM584.506 588.066H588.329V591.888H584.506V588.066ZM584.506 584.243H588.329V588.066H584.506V584.243ZM580.684 591.888H584.506V595.71H580.684V591.888ZM580.684 595.71H584.506V599.533H580.684V595.71ZM580.684 599.533H584.506V603.355H580.684V599.533ZM580.684 603.355H584.506V607.178H580.684V603.355ZM580.684 588.066H584.506V591.888H580.684V588.066ZM569.217 584.243H573.039V588.066H569.217V584.243ZM573.039 584.243H576.861V588.066H573.039V584.243ZM576.861 584.243H580.684V588.066H576.861V584.243ZM576.861 580.421H580.684V584.243H576.861V580.421ZM580.684 580.421H584.506V584.243H580.684V580.421ZM580.684 584.243H584.506V588.066H580.684V584.243ZM573.039 580.421H576.861V584.243H573.039V580.421ZM615.095 580.421H618.918V584.243H615.095V580.421ZM611.273 580.421H615.095V584.243H611.273V580.421ZM607.45 580.421H611.273V584.243H607.45V580.421ZM603.628 580.421H607.45V584.243H603.628V580.421ZM599.806 580.421H603.628V584.243H599.806V580.421ZM599.806 584.243H603.628V588.066H599.806V584.243ZM603.628 584.243H607.45V588.066H603.628V584.243ZM607.45 584.243H611.273V588.066H607.45V584.243ZM611.273 584.243H615.095V588.066H611.273V584.243ZM615.095 584.243H618.918V588.066H615.095V584.243ZM595.983 580.421H599.806V584.243H595.983V580.421ZM595.983 584.243H599.806V588.066H595.983V584.243ZM595.983 588.066H599.806V591.888H595.983V588.066ZM592.161 588.066H595.983V591.888H592.161V588.066ZM592.161 584.243H595.983V588.066H592.161V584.243ZM592.161 591.888H595.983V595.71H592.161V591.888ZM592.161 595.71H595.983V599.533H592.161V595.71ZM595.983 599.533H599.806V603.355H595.983V599.533ZM595.983 595.71H599.806V599.533H595.983V595.71ZM595.983 591.888H599.806V595.71H595.983V591.888ZM592.161 599.533H595.983V603.355H592.161V599.533ZM595.983 603.355H599.806V607.178H595.983V603.355ZM599.806 603.355H603.628V607.178H599.806V603.355ZM603.628 603.355H607.45V607.178H603.628V603.355ZM611.273 603.355H615.095V607.178H611.273V603.355ZM615.095 603.355H618.918V607.178H615.095V603.355ZM615.095 599.533H618.918V603.355H615.095V599.533ZM611.273 599.533H615.095V603.355H611.273V599.533ZM607.45 599.533H611.273V603.355H607.45V599.533ZM603.628 599.533H607.45V603.355H603.628V599.533ZM599.806 599.533H603.628V603.355H599.806V599.533ZM611.273 595.71H615.095V599.533H611.273V595.71ZM611.273 591.888H615.095V595.71H611.273V591.888ZM611.273 588.066H615.095V591.888H611.273V588.066ZM615.095 588.066H618.918V591.888H615.095V588.066ZM615.095 591.888H618.918V595.71H615.095V591.888ZM615.095 595.71H618.918V599.533H615.095V595.71ZM611.273 607.178H615.095V611H611.273V607.178ZM611.273 611H615.095V614.822H611.273V611ZM615.095 611H618.918V614.822H615.095V611ZM615.095 607.178H618.918V611H615.095V607.178ZM592.161 611H595.983V614.822H592.161V611ZM595.983 611H599.806V614.822H595.983V611ZM595.983 614.822H599.806V618.645H595.983V614.822ZM599.806 614.822H603.628V618.645H599.806V614.822ZM599.806 611H603.628V614.822H599.806V611ZM603.628 611H607.45V614.822H603.628V611ZM607.45 611H611.273V614.822H607.45V611ZM611.273 614.822H615.095V618.645H611.273V614.822ZM607.45 614.822H611.273V618.645H607.45V614.822ZM603.628 614.822H607.45V618.645H603.628V614.822Z" fill="#FC60A8"/>
</svg>
